<svg height="200px" width="200px" version="1.1" id="Layer_1" xmlns="http://www.w3.org/2000/svg"
    xmlns:xlink="http://www.w3.org/1999/xlink" viewBox="0 0 512 512" xml:space="preserve">
    <g id="SVGRepo_bgCarrier" stroke-width="0"></g>
    <g id="SVGRepo_tracerCarrier" stroke-linecap="round" stroke-linejoin="round"></g>
    <g id="SVGRepo_iconCarrier">
        <g>
            <g>
                <path
                    d="M195.765,7.529C87.647,7.529,0,95.176,0,203.294c0,65.361,32.041,123.232,81.263,158.789 c-3.9-17.176-5.969-35.039-5.969-53.378c0-12.862,1.031-25.486,2.982-37.808c-11.475-19.899-18.04-42.984-18.04-67.604 c0-74.851,60.678-135.529,135.529-135.529s135.529,60.678,135.529,135.529c0,63.143-43.183,116.201-101.626,131.254 c6.334,21.179,20.239,39.109,38.567,50.65c72.239-28.806,123.294-99.39,123.294-181.905 C391.529,95.176,303.883,7.529,195.765,7.529z"
                    fill="#926db2">
                </path>
            </g>
        </g>
        <g>
            <g>
                <path
                    d="M430.737,149.917c3.9,17.176,5.969,35.039,5.969,53.378c0,12.866-1.021,25.498-2.973,37.823 c11.469,19.896,18.031,42.975,18.031,67.589c0,74.851-60.678,135.529-135.529,135.529s-135.529-60.678-135.529-135.529 c0-63.143,43.183-116.201,101.626-131.254c-6.334-21.179-20.239-39.109-38.567-50.65 c-72.239,28.806-123.294,99.39-123.294,181.905c0,108.118,87.647,195.765,195.765,195.765S512,416.824,512,308.706 C512,243.345,479.959,185.474,430.737,149.917z"
                    fill="#0e6cc2">
                </path>
            </g>
        </g>
    </g>
</svg>